<?xml version="1.0" encoding="UTF-8"?>
<!DOCTYPE svg PUBLIC "-//W3C//DTD SVG 1.1//EN" "http://www.w3.org/Graphics/SVG/1.1/DTD/svg11.dtd">
<!-- Creator: CorelDRAW 2019 (64-Bit) -->
<svg xmlns="http://www.w3.org/2000/svg" xml:space="preserve" width="13mm" height="18mm" version="1.1" style="shape-rendering:geometricPrecision; text-rendering:geometricPrecision; image-rendering:optimizeQuality; fill-rule:evenodd; clip-rule:evenodd"
viewBox="0 0 1300 1800"
 xmlns:xlink="http://www.w3.org/1999/xlink">
 <defs>
  <style type="text/css">
   <![CDATA[
    .fil1 {fill:black;fill-rule:nonzero}
    .fil0 {fill:#FF4F00;fill-rule:nonzero}
   ]]>
  </style>
 </defs>
 <g id="Слой_x0020_1">
  <metadata id="CorelCorpID_0Corel-Layer"/>
  <path class="fil0" d="M876.7 449.69c-221.19,0 -401.14,179.95 -401.14,401.18 0,45.79 22.75,117.16 64.03,200.87 31.85,64.6 58.17,129.61 78.17,193.25l77.82 201.33c4.7,14.64 16.23,23.15 29.39,23.15l299.76 0c13.05,0 24.55,-8.36 28.61,-20.78l82.55 -207.72c19.68,-60.82 45.65,-124.21 76.48,-186.26 42.23,-85.02 65.51,-157.41 65.51,-203.84 0,-221.23 -179.99,-401.18 -401.18,-401.18z"/>
  <path class="fil1" d="M642.49 508.42c-216.61,0 -392.79,176.17 -392.79,392.78 0,45.15 22.12,114.9 62.3,196.35 30.45,61.78 55.64,123.97 74.83,184.93l75.03 194.17c5.26,16.51 18.95,26.6 34.65,26.6l288.39 0c15.56,0 29.21,-9.95 34.01,-24.73l79.27 -199.39c19.01,-58.67 43.89,-119.35 73.38,-178.72 41.1,-82.76 63.74,-153.49 63.74,-199.21 0,-216.61 -176.24,-392.78 -392.81,-392.78zm142.41 1047.75l-288.39 0c-38.88,0 -72.89,-24.95 -84.56,-62.02l-75.04 -194.17c-18.91,-59.97 -43.07,-119.66 -72.39,-179 -30.9,-62.69 -67.73,-151.66 -67.73,-219.78 0,-245.75 199.92,-445.7 445.7,-445.7 245.78,0 445.73,199.95 445.73,445.7 0,68.83 -37.68,159.14 -69.25,222.78 -28.36,57.04 -52.25,115.29 -71.01,173.11l-79.31 199.39c-11.29,35.03 -45.19,59.69 -83.75,59.69z"/>
  <path class="fil1" d="M799.68 1670.64l-314.39 0c-14.61,0 -26.46,-11.85 -26.46,-26.46 0,-14.6 11.85,-26.45 26.46,-26.45l314.39 0c14.61,0 26.46,11.85 26.46,26.45 0,14.61 -11.85,26.46 -26.46,26.46z"/>
  <path class="fil1" d="M760.77 1792.7l-236.57 0c-14.61,0 -26.46,-11.85 -26.46,-26.46 0,-14.6 11.85,-26.45 26.46,-26.45l236.57 0c14.61,0 26.46,11.85 26.46,26.45 0,14.61 -11.85,26.46 -26.46,26.46z"/>
  <path class="fil1" d="M642.49 316.75c-14.61,0 -26.46,-11.85 -26.46,-26.46l0 -251.56c0,-14.61 11.85,-26.46 26.46,-26.46 14.6,0 26.45,11.85 26.45,26.46l0 251.56c0,14.61 -11.85,26.46 -26.45,26.46z"/>
  <path class="fil1" d="M408.28 364.55c-10.8,0 -20.96,-6.63 -24.84,-17.39l-86.04 -236.36c-5.01,-13.76 2.05,-28.93 15.8,-33.94 13.66,-4.87 28.9,2.08 33.91,15.81l86.04 236.36c5.01,13.76 -2.08,28.96 -15.81,33.94 -3,1.09 -6.03,1.58 -9.06,1.58z"/>
  <path class="fil1" d="M204.58 489.58c-7.58,0 -15.06,-3.21 -20.28,-9.42l-161.71 -192.69c-9.39,-11.22 -7.94,-27.9 3.28,-37.29 11.18,-9.45 27.87,-7.94 37.25,3.25l161.71 192.69c9.39,11.18 7.94,27.9 -3.28,37.25 -4.94,4.2 -10.97,6.21 -16.97,6.21z"/>
  <path class="fil1" d="M1089.07 465.8c-6,0 -12.03,-2.01 -16.97,-6.17 -11.22,-9.39 -12.67,-26.11 -3.28,-37.29l161.68 -192.69c9.38,-11.18 26.1,-12.63 37.25,-3.24 11.22,9.38 12.66,26.07 3.28,37.28l-161.68 192.69c-5.22,6.21 -12.73,9.42 -20.28,9.42z"/>
  <path class="fil1" d="M878.92 351.89c-3,0 -6.03,-0.53 -9.03,-1.59 -13.73,-5.01 -20.82,-20.18 -15.81,-33.94l86.01 -236.36c5.01,-13.76 20.25,-20.71 33.9,-15.8 13.72,4.97 20.82,20.18 15.84,33.9l-86.04 236.4c-3.92,10.72 -14.04,17.39 -24.87,17.39z"/>
 </g>
</svg>
