<?xml version="1.0" encoding="UTF-8"?>
<!DOCTYPE svg PUBLIC "-//W3C//DTD SVG 1.1//EN" "http://www.w3.org/Graphics/SVG/1.1/DTD/svg11.dtd">
<!-- Creator: CorelDRAW 2019 (64-Bit) -->
<svg xmlns="http://www.w3.org/2000/svg" xml:space="preserve" width="24mm" height="13mm" version="1.1" style="shape-rendering:geometricPrecision; text-rendering:geometricPrecision; image-rendering:optimizeQuality; fill-rule:evenodd; clip-rule:evenodd"
viewBox="0 0 2400 1300"
 xmlns:xlink="http://www.w3.org/1999/xlink">
 <defs>
  <style type="text/css">
   <![CDATA[
    .fil0 {fill:#FF4F00}
    .fil1 {fill:black;fill-rule:nonzero}
   ]]>
  </style>
 </defs>
 <g id="Слой_x0020_1">
  <metadata id="CorelCorpID_0Corel-Layer"/>
  <path class="fil0" d="M1655.03 309.38c0,78.61 -31.91,149.79 -83.45,201.35 -51.56,51.69 -122.82,83.57 -201.47,83.57 -78.69,0 -149.92,-31.88 -201.48,-83.44 -51.56,-51.56 -83.44,-122.79 -83.44,-201.48 0,-78.65 31.88,-149.91 83.44,-201.47 51.69,-51.54 122.87,-83.45 201.48,-83.45 78.59,0 149.78,31.91 201.34,83.45l0.13 0.13c51.54,51.56 83.45,122.75 83.45,201.34zm260.38 882.52l-1119.06 0 0 -125.55c0,-102.97 42.13,-196.58 109.99,-264.46 67.86,-67.99 161.54,-110.12 264.59,-110.12l403.33 0c103.02,0 196.71,42.14 264.58,110 67.86,67.87 110,161.56 110,264.58l0 125.55 -33.43 0z"/>
  <path class="fil1" d="M1488.23 376.92c0,41.85 -8.37,81.86 -23.53,118.42 -15.76,37.91 -38.77,72.02 -67.24,100.5 -28.58,28.67 -62.73,51.74 -100.57,67.44 -36.61,15.18 -76.69,23.56 -118.58,23.56 -41.83,0 -81.85,-8.37 -118.44,-23.52 -38.1,-15.77 -72.26,-38.78 -100.72,-67.24 -28.46,-28.46 -51.47,-62.62 -67.24,-100.72 -15.15,-36.59 -23.52,-76.61 -23.52,-118.44 0,-41.82 8.37,-81.85 23.53,-118.44 15.77,-38.1 38.77,-72.26 67.23,-100.72 28.7,-28.5 62.86,-51.52 100.84,-67.24 36.57,-15.15 76.55,-23.52 118.32,-23.52 41.83,0 81.84,8.37 118.41,23.52 37.84,15.69 71.96,38.7 100.51,67.24l0.68 0.69c28.29,28.43 51.12,62.36 66.75,100.06 15.19,36.55 23.57,76.57 23.57,118.41zm-69.63 99.33c12.65,-30.56 19.63,-64.09 19.63,-99.33 0,-35.24 -6.99,-68.78 -19.63,-99.28 -13.14,-31.83 -32.49,-60.46 -56.5,-84.48l-0.39 -0.4c-23.9,-23.79 -52.45,-43.01 -84.13,-56.14 -30.5,-12.64 -64.04,-19.62 -99.27,-19.62 -35.3,0 -68.87,6.98 -99.38,19.62 -31.74,13.14 -60.39,32.46 -84.47,56.45 -24.01,24.11 -43.34,52.72 -56.44,84.35 -12.65,30.53 -19.63,64.14 -19.63,99.5 0,35.36 6.99,68.98 19.62,99.5 13.1,31.63 32.44,60.24 56.5,84.3 24.06,24.06 52.67,43.4 84.3,56.5 30.52,12.63 64.14,19.62 99.5,19.62 35.29,0 68.89,-6.99 99.44,-19.66 31.81,-13.2 60.45,-32.53 84.35,-56.5 24.01,-24.02 43.36,-52.65 56.5,-84.43zm305.01 808.19c-368.33,0 -736.65,0 -1104.98,0 -22.95,-0.62 -37.96,-16.14 -39.08,-34.63l0 -115.92c0,-53.8 10.83,-105.29 30.4,-152.35 20.3,-48.8 50.05,-92.82 86.91,-129.69 36.9,-36.97 80.95,-66.79 129.76,-87.11 47.11,-19.6 98.66,-30.44 152.51,-30.44l403.33 0c53.82,0 105.34,10.83 152.44,30.41 48.94,20.35 93.01,50.11 129.82,86.92 36.81,36.81 66.57,80.88 86.91,129.81 19.58,47.09 30.41,98.62 30.41,152.45l0 116.59c0.01,13.48 -5.09,33.39 -26.74,33.96l-31.69 0zm-1094.06 -50l1102.49 0 0 -100.55c0,-47.2 -9.44,-92.26 -26.51,-133.31 -17.74,-42.68 -43.83,-81.25 -76.17,-113.59 -32.35,-32.35 -70.91,-58.43 -113.6,-76.18 -41.06,-17.07 -86.11,-26.51 -133.3,-26.51l-403.33 0c-47.23,0 -92.3,9.45 -133.37,26.54 -42.77,17.81 -81.31,43.88 -113.54,76.17 -32.3,32.31 -58.38,70.89 -76.17,113.67 -17.06,41.02 -26.5,86.04 -26.5,133.21l0 100.55z"/>
  <path class="fil0" d="M795.33 236.95c0,52.34 -21.25,99.74 -55.56,134.07 -34.33,34.42 -81.79,55.66 -134.16,55.66 -52.4,0 -99.83,-21.24 -134.16,-55.57 -34.34,-34.33 -55.57,-81.77 -55.57,-134.16 0,-52.38 21.23,-99.83 55.57,-134.16 34.42,-34.32 81.82,-55.57 134.16,-55.57 52.33,0 99.74,21.25 134.07,55.57l0.09 0.09c34.31,34.33 55.56,81.74 55.56,134.07zm-131 587.66l-440.78 0 0 -83.6c0,-68.57 28.05,-130.9 73.24,-176.1 45.19,-45.28 107.57,-73.33 176.19,-73.33l268.57 0c68.6,0 130.99,28.06 176.18,73.25 6.76,6.76 13.13,13.9 19.09,21.39 -18.68,4.76 -36.85,10.85 -54.41,18.15 -48.81,20.32 -92.86,50.14 -129.76,87.11 -36.86,36.87 -66.61,80.89 -86.91,129.69l-1.41 3.44z"/>
  <path class="fil1" d="M644.17 315.33c0,27.87 -5.57,54.51 -15.67,78.86 -10.49,25.24 -25.81,47.96 -44.77,66.92 -19.03,19.09 -41.77,34.45 -66.97,44.91 -24.38,10.11 -51.07,15.69 -78.96,15.69 -27.86,0 -54.5,-5.58 -78.87,-15.67 -25.37,-10.5 -48.12,-25.82 -67.07,-44.77 -18.95,-18.95 -34.27,-41.7 -44.77,-67.07 -10.09,-24.36 -15.66,-51.01 -15.66,-78.87 0,-27.84 5.57,-54.5 15.66,-78.87 10.51,-25.37 25.82,-48.11 44.77,-67.06 19.11,-18.98 41.86,-34.31 67.15,-44.78 24.35,-10.09 50.97,-15.66 78.79,-15.66 27.85,0 54.5,5.57 78.85,15.66 25.19,10.45 47.91,25.77 66.93,44.78l0.45 0.46c18.84,18.93 34.04,41.52 44.45,66.62 10.11,24.34 15.69,50.99 15.69,78.85zm-46.36 66.15c8.42,-20.35 13.07,-42.68 13.07,-66.15 0,-23.46 -4.66,-45.8 -13.07,-66.11 -8.75,-21.19 -21.64,-40.26 -37.63,-56.25l-0.26 -0.27c-15.91,-15.84 -34.92,-28.64 -56.02,-37.38 -20.31,-8.42 -42.64,-13.07 -66.1,-13.07 -23.51,0 -45.86,4.65 -66.18,13.07 -21.13,8.75 -40.21,21.61 -56.25,37.59 -15.98,16.05 -28.85,35.1 -37.58,56.17 -8.42,20.33 -13.07,42.71 -13.07,66.25 0,23.55 4.66,45.94 13.07,66.26 8.72,21.06 21.6,40.11 37.62,56.13 16.02,16.03 35.07,28.9 56.13,37.63 20.33,8.41 42.71,13.06 66.26,13.06 23.5,0 45.87,-4.65 66.22,-13.09 21.18,-8.79 40.25,-21.66 56.16,-37.62 15.99,-16 28.88,-35.06 37.63,-56.22zm-51.43 538.16l-481.27 0c-15.28,-0.41 -25.27,-10.75 -26.02,-23.06l0 -77.19c0,-35.82 7.21,-70.11 20.24,-101.45 13.52,-32.49 33.33,-61.8 57.88,-86.36 24.57,-24.61 53.9,-44.47 86.4,-58 31.37,-13.05 65.7,-20.27 101.56,-20.27l268.57 0c35.84,0 70.15,7.21 101.51,20.25 32.59,13.55 61.93,33.37 86.45,57.88 17.1,17.1 31.91,36.55 43.9,57.81 -10.94,3.13 -21.68,6.72 -32.22,10.75 -9.88,-16.4 -21.74,-31.53 -35.23,-45.02 -21.54,-21.54 -47.22,-38.9 -75.65,-50.72 -27.34,-11.37 -57.34,-17.66 -88.76,-17.66l-268.57 0c-31.45,0 -61.46,6.3 -88.81,17.68 -28.48,11.86 -54.15,29.22 -75.61,50.72 -21.51,21.51 -38.87,47.2 -50.72,75.69 -11.36,27.31 -17.65,57.29 -17.65,88.7l0 66.96 489.87 0c-5.78,10.82 -11.09,21.92 -15.87,33.29z"/>
  <path class="fil0" d="M1804.41 243.68c0,52.34 21.25,99.74 55.56,134.07 34.33,34.42 81.79,55.66 134.16,55.66 52.4,0 99.83,-21.24 134.16,-55.57 34.34,-34.33 55.57,-81.77 55.57,-134.16 0,-52.38 -21.23,-99.83 -55.57,-134.16 -34.42,-34.32 -81.82,-55.57 -134.16,-55.57 -52.33,0 -99.74,21.25 -134.07,55.57l-0.09 0.09c-34.31,34.33 -55.56,81.74 -55.56,134.07zm131 587.66l440.78 0 0 -83.6c0,-68.57 -28.05,-130.9 -73.24,-176.1 -45.19,-45.28 -107.57,-73.33 -176.19,-73.33l-268.57 0c-68.6,0 -130.99,28.06 -176.18,73.25 -6.76,6.76 -13.13,13.9 -19.09,21.39 18.68,4.76 36.85,10.85 54.41,18.15 48.81,20.32 92.86,50.14 129.76,87.11 36.86,36.87 66.61,80.89 86.91,129.69l1.41 3.44z"/>
  <path class="fil1" d="M1715.57 322.06c0,27.87 5.57,54.51 15.67,78.86 10.49,25.24 25.81,47.96 44.77,66.92 19.03,19.09 41.77,34.45 66.97,44.91 24.38,10.11 51.07,15.69 78.96,15.69 27.86,0 54.5,-5.58 78.87,-15.67 25.37,-10.5 48.12,-25.82 67.07,-44.77 18.95,-18.95 34.27,-41.7 44.77,-67.07 10.09,-24.36 15.66,-51.01 15.66,-78.87 0,-27.84 -5.57,-54.5 -15.66,-78.87 -10.51,-25.37 -25.82,-48.11 -44.77,-67.06 -19.11,-18.98 -41.86,-34.31 -67.15,-44.78 -24.35,-10.09 -50.97,-15.66 -78.79,-15.66 -27.85,0 -54.5,5.57 -78.85,15.66 -25.19,10.45 -47.91,25.77 -66.93,44.78l-0.45 0.46c-18.84,18.93 -34.04,41.52 -44.45,66.62 -10.11,24.34 -15.69,50.99 -15.69,78.85zm46.36 66.15c-8.42,-20.35 -13.07,-42.68 -13.07,-66.15 0,-23.46 4.66,-45.8 13.07,-66.11 8.75,-21.19 21.64,-40.26 37.63,-56.25l0.26 -0.27c15.91,-15.84 34.92,-28.64 56.02,-37.38 20.31,-8.42 42.64,-13.07 66.1,-13.07 23.51,0 45.86,4.65 66.18,13.07 21.13,8.75 40.21,21.61 56.25,37.59 15.98,16.05 28.85,35.1 37.58,56.17 8.42,20.33 13.07,42.71 13.07,66.25 0,23.55 -4.66,45.94 -13.07,66.26 -8.72,21.06 -21.6,40.11 -37.62,56.13 -16.02,16.03 -35.07,28.9 -56.13,37.63 -20.33,8.41 -42.71,13.06 -66.26,13.06 -23.5,0 -45.87,-4.65 -66.22,-13.09 -21.18,-8.79 -40.25,-21.66 -56.16,-37.62 -15.99,-16 -28.88,-35.06 -37.63,-56.22zm51.43 538.16l481.27 0c15.28,-0.41 25.27,-10.75 26.02,-23.06l0 -77.19c0,-35.82 -7.21,-70.11 -20.24,-101.45 -13.52,-32.49 -33.33,-61.8 -57.88,-86.36 -24.57,-24.61 -53.9,-44.47 -86.4,-58 -31.37,-13.05 -65.7,-20.27 -101.56,-20.27l-268.57 0c-35.84,0 -70.15,7.21 -101.51,20.25 -32.59,13.55 -61.93,33.37 -86.45,57.88 -17.1,17.1 -31.91,36.55 -43.9,57.81 10.94,3.13 21.68,6.72 32.22,10.75 9.88,-16.4 21.74,-31.53 35.23,-45.02 21.54,-21.54 47.22,-38.9 75.65,-50.72 27.34,-11.37 57.34,-17.66 88.76,-17.66l268.57 0c31.45,0 61.46,6.3 88.81,17.68 28.48,11.86 54.15,29.22 75.61,50.72 21.51,21.51 38.87,47.2 50.72,75.69 11.36,27.31 17.65,57.29 17.65,88.7l0 66.96 -489.87 0c5.78,10.82 11.09,21.92 15.87,33.29z"/>
 </g>
</svg>
