<?xml version="1.0" encoding="UTF-8"?>
<!DOCTYPE svg PUBLIC "-//W3C//DTD SVG 1.1//EN" "http://www.w3.org/Graphics/SVG/1.1/DTD/svg11.dtd">
<!-- Creator: CorelDRAW 2019 (64-Bit) -->
<svg xmlns="http://www.w3.org/2000/svg" xml:space="preserve" width="44mm" height="66mm" version="1.1" style="shape-rendering:geometricPrecision; text-rendering:geometricPrecision; image-rendering:optimizeQuality; fill-rule:evenodd; clip-rule:evenodd"
viewBox="0 0 4400 6600"
 xmlns:xlink="http://www.w3.org/1999/xlink">
 <defs>
  <style type="text/css">
   <![CDATA[
    .fil0 {fill:black}
    .fil1 {fill:#FF4F00}
   ]]>
  </style>
 </defs>
 <g id="Слой_x0020_1">
  <metadata id="CorelCorpID_0Corel-Layer"/>
  <path class="fil0" d="M57.21 1156.74c-19.57,7.78 -33.5,26.94 -33.5,49.19l0 926.43c0,22.25 13.93,41.42 33.5,49.19l0 3880.16c0,206.57 169.02,375.58 375.59,375.58l2220.28 0c-154.96,-57.5 -293.79,-138.18 -409.6,-236.5l-1718.62 0c-159.28,0 -289.59,-130.31 -289.59,-289.59l0 -5366.22c0,-159.28 130.31,-289.59 289.59,-289.59l392.66 0 0 32.94c0,99.95 81.78,181.73 181.73,181.73l1290.63 0c99.95,0 181.73,-81.78 181.73,-181.73l0 -32.94 399.07 0c159.28,0 289.59,130.31 289.59,289.59l0 3855.8c60.46,1.77 119.91,6.72 178.06,14.73l0 -2750.63c15.65,-3.33 27.49,-17.3 27.49,-33.91l0 -467.1c0,-16.61 -11.84,-30.58 -27.49,-33.91l0 -735.5c0,-206.57 -169.02,-375.58 -375.59,-375.58l-2629.94 0c-206.57,0 -375.59,169.01 -375.59,375.58l0 762.28zm1278.27 -914.28l599.44 0c22.48,0 40.88,18.39 40.88,40.87l0 0.01c0,22.48 -18.4,40.87 -40.88,40.87l-599.44 0c-22.48,0 -40.87,-18.39 -40.87,-40.87l0 -0.01c0,-22.48 18.39,-40.87 40.87,-40.87zm815.82 0.4c21.25,0 38.47,17.23 38.47,38.47 0,21.24 -17.22,38.47 -38.47,38.47 -21.24,0 -38.46,-17.23 -38.46,-38.47 0,-21.24 17.22,-38.47 38.46,-38.47z"/>
  <rect class="fil0" x="819.82" y="2884.27" width="1835.01" height="128.22" rx="393.66" ry="121.16"/>
  <rect class="fil0" x="819.82" y="3158.17" width="1835.01" height="128.22" rx="393.66" ry="121.16"/>
  <path class="fil0" d="M959.03 979.92l1563.72 0c79.94,0 145.35,65.41 145.35,145.35l0 1376.21c0,79.95 -65.41,145.36 -145.35,145.36l-1539.52 0c-79.95,0 -145.36,-65.41 -145.36,-145.36l0 -1400.41c0,-66.63 54.52,-121.15 121.16,-121.15zm138.46 145.35l1291.02 0c66,0 120,54 120,120.01l0 1136.2c0,66 -54,120 -120,120l-1271.04 0c-66,0 -120,-54 -120,-120l0 -1156.19c0,-55 45.01,-100.02 100.02,-100.02zm77.72 81.59l1137.94 0c58.18,0 105.78,47.6 105.78,105.78l0 1001.48c0,58.18 -47.6,105.78 -105.78,105.78l-1120.33 0c-58.18,0 -105.77,-47.6 -105.77,-105.78l0 -1019.09c0,-48.49 39.67,-88.17 88.16,-88.17z"/>
  <path class="fil0" d="M983.37 3561.56l1186.42 0c89.91,0 163.46,73.56 163.46,163.47l0 0c0,89.9 -73.55,163.46 -163.46,163.46l-29.74 0c-19.25,-119.7 -119,-210.92 -239.18,-210.92 -120.18,0 -219.94,91.22 -239.18,210.92l-678.32 0c-89.9,0 -163.45,-73.56 -163.45,-163.46l0 0c0,-89.91 73.55,-163.47 163.45,-163.47z"/>
  <path class="fil1" d="M1807.26 3888.62c0,151.84 98.25,300.25 157.66,428.45 10.69,23.07 15.13,37.37 26.56,60.03l636.26 1221.96c29.93,64.77 38.7,82.91 38.7,161.11 0,73.5 -80.53,27.98 -124.41,4.52l-147.08 -106.01c-24.46,-20.26 -50.49,-36.75 -76.75,-56.46 -93.06,-69.88 -208.88,-181.72 -337.77,-181.72 -129.59,0 -114.33,173.36 -64.54,264.34 24.47,44.7 42.22,53.56 78.12,81.73 22.62,17.74 17.57,23.2 37.96,41.97 62.5,57.52 49.45,38.07 119.66,120.1 156.24,182.57 33.95,137.15 367.48,271.91l209.54 103.5c77.27,34.53 150.18,56.98 240.13,79.57 148.15,37.2 164.75,23.4 279.2,40.49 60.25,9 80.33,10.03 119.05,40.8 56.04,44.54 39.31,80.47 38.7,107.82 80.07,-42.37 161.14,-80.31 244.16,-122.16 22.66,-11.42 36.96,-15.86 60.03,-26.55 69.86,-32.38 674.88,-333.56 674.88,-344.15 0,-66.51 -32.58,-139.81 -33.13,-233.29 -0.19,-32.19 -7.69,-94.21 -11.45,-121.76 -6.27,-45.95 -9.57,-72.32 -18.12,-115.08 -51.6,-258.15 -179.15,-547.1 -317.04,-761.93 -34.15,-53.21 -40.17,-103.15 -109.16,-157.25 -26.77,-20.99 -53.04,-36.95 -84.66,-48.55 -88.2,-32.39 -226.48,-22.22 -298.94,12.55 -57.1,-85.26 -234.64,-146.39 -371.5,-11.84 -14.91,14.65 -28.86,35.93 -41.44,45.14 -27.72,-14.67 -45.04,-31.58 -75.86,-44.02 -89,-35.92 -175.7,-26.92 -245.52,35.68 -29.15,26.14 -82.11,81.01 -91.56,121.57 -49.06,-32.85 -354.34,-546.42 -387.58,-598.15 -15.87,-24.7 -28.09,-43.82 -44.05,-69.18 -60.54,-96.19 -104.67,-177.83 -182.73,-256.85 -64.88,-65.69 -194.44,-120.12 -243.28,-53.35 -7.4,10.1 -21.52,51.15 -21.52,65.06z"/>
 </g>
</svg>
