<?xml version="1.0" encoding="UTF-8"?>
<!DOCTYPE svg PUBLIC "-//W3C//DTD SVG 1.1//EN" "http://www.w3.org/Graphics/SVG/1.1/DTD/svg11.dtd">
<!-- Creator: CorelDRAW 2019 (64-Bit) -->
<svg xmlns="http://www.w3.org/2000/svg" xml:space="preserve" width="15mm" height="13mm" version="1.1" style="shape-rendering:geometricPrecision; text-rendering:geometricPrecision; image-rendering:optimizeQuality; fill-rule:evenodd; clip-rule:evenodd"
viewBox="0 0 1500 1300"
 xmlns:xlink="http://www.w3.org/1999/xlink">
 <defs>
  <style type="text/css">
   <![CDATA[
    .fil2 {fill:black}
    .fil0 {fill:#FF4F00}
    .fil1 {fill:black;fill-rule:nonzero}
   ]]>
  </style>
 </defs>
 <g id="Слой_x0020_1">
  <metadata id="CorelCorpID_0Corel-Layer"/>
  <circle class="fil0" cx="887.02" cy="575.48" r="565.43"/>
  <path class="fil1" d="M1225.15 681.99c0,163.03 -66.1,310.67 -172.93,417.5 -106.83,106.83 -254.46,172.93 -417.49,172.93 -163.03,0 -310.67,-66.1 -417.5,-172.93 -106.83,-106.83 -172.93,-254.47 -172.93,-417.5 0,-163.03 66.1,-310.66 172.93,-417.49 106.83,-106.83 254.47,-172.93 417.5,-172.93 163.03,0 310.66,66.1 417.49,172.93 106.83,106.83 172.93,254.46 172.93,417.49zm-208.29 382.14c97.79,-97.79 158.29,-232.91 158.29,-382.14 0,-149.22 -60.5,-284.34 -158.29,-382.13 -97.79,-97.79 -232.9,-158.29 -382.13,-158.29 -149.23,0 -284.35,60.5 -382.14,158.29 -97.79,97.79 -158.29,232.9 -158.29,382.13 0,149.23 60.5,284.35 158.29,382.14 97.79,97.79 232.91,158.29 382.14,158.29 149.23,0 284.34,-60.5 382.13,-158.29z"/>
  <rect class="fil2" x="617.71" y="659.22" width="358.07" height="45.54" rx="71.75" ry="59.59"/>
  <rect class="fil2" transform="matrix(2.11138E-14 -1.06935 0.662155 2.35232E-14 611.954 708.651)" width="449.15" height="68.78" rx="90" ry="90"/>
 </g>
</svg>
