<?xml version="1.0" encoding="UTF-8"?>
<!DOCTYPE svg PUBLIC "-//W3C//DTD SVG 1.1//EN" "http://www.w3.org/Graphics/SVG/1.1/DTD/svg11.dtd">
<!-- Creator: CorelDRAW 2019 (64-Bit) -->
<svg xmlns="http://www.w3.org/2000/svg" xml:space="preserve" width="44mm" height="40mm" version="1.1" style="shape-rendering:geometricPrecision; text-rendering:geometricPrecision; image-rendering:optimizeQuality; fill-rule:evenodd; clip-rule:evenodd"
viewBox="0 0 4400 4000"
 xmlns:xlink="http://www.w3.org/1999/xlink">
 <defs>
  <style type="text/css">
   <![CDATA[
    .fil0 {fill:black}
    .fil1 {fill:#FF4F00}
   ]]>
  </style>
 </defs>
 <g id="Слой_x0020_1">
  <metadata id="CorelCorpID_0Corel-Layer"/>
  <path class="fil0" d="M344.74 1104.63l1000 0 0 209.11 -1032.46 0c-23.71,0 -43.09,19.38 -43.09,43.09l0 1985.98c0,23.71 19.38,43.09 43.09,43.09l3307.23 0c23.71,0 43.09,-19.38 43.09,-43.09l0 -1028.62 183.09 0 0 1416.21c0,142.26 -116.39,258.66 -258.66,258.66l-3242.29 0c-142.26,0 -258.66,-116.4 -258.66,-258.66l0 -2367.1c0,-142.27 116.4,-258.67 258.66,-258.67zm1621.16 2466.3c57.74,0 104.54,46.8 104.54,104.54 0,57.75 -46.8,104.55 -104.54,104.55 -57.75,0 -104.55,-46.8 -104.55,-104.55 0,-57.74 46.8,-104.54 104.55,-104.54z"/>
  <path class="fil1" d="M1585.53 22.73l1735.01 0c15.07,0 37.74,12.31 50.42,27.38l1106.74 1314.29c12.69,15.04 10.73,27.35 -4.32,27.35l-174.4 0 0 1330.33 -171.11 0 0 -1330.33 -1389.52 0c-15.04,0 -37.72,-12.31 -50.41,-27.35l-1106.74 -1314.29c-12.67,-15.07 -10.73,-27.38 4.33,-27.38z"/>
  <path class="fil1" d="M1514.71 1058.4l278.74 -407.65 783.62 929.39c12.7,15.02 35.35,27.36 50.43,27.39l1209.82 2.01 -6.64 434.01c-0.3,19.6 -18.84,41.67 -33.8,41.64l-1436.73 -0.02c-14.96,-0.02 -37.81,-12.38 -50.42,-27.38l-793.19 -941.9c-12.61,-15 -10.32,-45.06 -1.83,-57.49z"/>
  <path class="fil1" d="M4330.26 3269.37l-67.47 121.38 -81.39 146.47 -81.4 -146.47 -67.46 -121.38c-24.73,-31.88 -39.47,-71.86 -39.47,-115.32 0,-104.03 84.32,-188.35 188.35,-188.35 103.98,0 188.31,84.32 188.31,188.35 0,43.46 -14.75,83.44 -39.47,115.32z"/>
 </g>
</svg>
