<?xml version="1.0" encoding="UTF-8"?>
<!DOCTYPE svg PUBLIC "-//W3C//DTD SVG 1.1//EN" "http://www.w3.org/Graphics/SVG/1.1/DTD/svg11.dtd">
<!-- Creator: CorelDRAW 2019 (64-Bit) -->
<svg xmlns="http://www.w3.org/2000/svg" xml:space="preserve" width="13mm" height="14mm" version="1.1" style="shape-rendering:geometricPrecision; text-rendering:geometricPrecision; image-rendering:optimizeQuality; fill-rule:evenodd; clip-rule:evenodd"
viewBox="0 0 1300 1400"
 xmlns:xlink="http://www.w3.org/1999/xlink">
 <defs>
  <style type="text/css">
   <![CDATA[
    .fil2 {fill:black}
    .fil0 {fill:#FF4F00}
    .fil1 {fill:black;fill-rule:nonzero}
   ]]>
  </style>
 </defs>
 <g id="Слой_x0020_1">
  <metadata id="CorelCorpID_0Corel-Layer"/>
  <rect class="fil0" x="326.57" y="60.79" width="925.59" height="1160.55" rx="50" ry="42.54"/>
  <path class="fil1" d="M107.22 151.66l825.59 0c20.65,0 39.43,8.45 52.99,22.01 13.56,13.68 22.01,32.43 22.01,52.99l0 1060.55c0,20.54 -8.43,39.27 -22.01,52.89l-0.1 0.1c-13.62,13.58 -32.35,22.01 -52.89,22.01l-825.59 0c-20.56,0 -39.31,-8.45 -52.94,-22.06 -13.61,-13.51 -22.06,-32.29 -22.06,-52.94l0 -1060.55c0,-20.65 8.45,-39.43 22.01,-52.99 13.56,-13.56 32.34,-22.01 52.99,-22.01zm825.59 50l-825.59 0c-6.84,0 -13.1,2.84 -17.63,7.37 -4.53,4.53 -7.37,10.79 -7.37,17.63l0 1060.55c0,6.84 2.84,13.1 7.37,17.63 4.48,4.58 10.73,7.37 17.63,7.37l825.59 0c6.9,0 13.15,-2.79 17.63,-7.27l0.1 -0.1c4.48,-4.48 7.27,-10.73 7.27,-17.63l0 -1060.55c0,-6.9 -2.79,-13.15 -7.27,-17.63 -4.63,-4.53 -10.89,-7.37 -17.73,-7.37z"/>
  <rect class="fil2" x="190.63" y="709.89" width="658.77" height="50" rx="78.66" ry="50"/>
  <rect class="fil2" x="190.63" y="824.54" width="658.77" height="50" rx="78.66" ry="50"/>
  <rect class="fil2" x="190.63" y="595.24" width="658.77" height="50" rx="78.66" ry="50"/>
  <rect class="fil2" x="190.63" y="480.58" width="329.38" height="50" rx="39.33" ry="50"/>
 </g>
</svg>
